<svg width="92" height="92" viewBox="0 0 92 92" fill="none" xmlns="http://www.w3.org/2000/svg">
<path d="M61.6416 35.0194C61.6548 35.2218 61.6051 35.338 61.3794 35.3479C61.0443 35.3579 60.7058 35.4143 60.3739 35.3911C59.9359 35.3612 59.8231 35.4043 59.6738 35.8158C59.6472 35.8888 59.6207 35.9618 59.6107 36.0382C59.5875 36.1808 59.5112 36.2373 59.3651 36.2439C58.9736 36.2638 58.9371 36.3003 58.8242 36.6786C58.7877 36.8014 58.7512 36.9208 58.7214 37.0436C58.6782 37.2095 58.6782 37.3688 58.811 37.4717C58.7878 37.631 58.7712 37.777 58.7446 37.9164C58.7147 38.0591 58.6749 38.1885 58.4825 38.0723C58.4493 38.0524 58.3995 38.0425 58.3597 38.0491C58.061 38.0956 57.759 38.1221 57.4703 38.2051C57.3542 38.2382 57.2547 38.3876 57.1883 38.507C57.1086 38.653 57.0821 38.7758 56.8465 38.7393C56.5545 38.6929 56.3487 38.9086 56.1961 39.1375C56.0799 39.3134 56.0235 39.4329 55.7348 39.3499C55.5025 39.2835 55.184 39.4096 54.9849 39.6452C54.955 39.6817 54.9218 39.7182 54.882 39.7647C54.6796 39.6121 54.4838 39.7116 54.3046 39.7946C53.8102 40.0269 53.3655 40.3322 52.9972 40.7702C52.8445 40.6441 52.7317 40.737 52.6056 40.8498C52.4596 40.9792 52.297 41.0954 52.1311 41.1949C51.985 41.2812 51.9187 41.3874 51.932 41.5533C51.9585 41.8752 52.0116 42.1838 52.2007 42.4559C52.4629 42.8409 52.7284 43.2225 52.9938 43.6041C53.037 43.6671 53.0901 43.7269 53.1465 43.78C53.475 44.0886 53.9064 44.0521 54.1719 43.6904C54.2515 43.5842 54.3079 43.5344 54.4407 43.6174C54.7128 43.7899 54.7725 43.7766 55.0081 43.5576C55.2072 43.3718 55.4926 43.3917 55.8211 43.624C55.476 43.8131 55.466 44.1218 55.5125 44.4536C55.5324 44.583 55.4727 44.6295 55.3532 44.6461C55.1077 44.6792 54.8654 44.7357 54.6199 44.7556C54.517 44.7622 54.4008 44.7191 54.3046 44.6726C53.8234 44.427 53.7073 44.3972 53.2792 44.8883C53.2228 44.9513 53.173 45.021 53.1266 45.0907C52.9772 45.3064 52.8213 45.4358 52.5094 45.3562C52.3368 45.3131 52.0979 45.3927 51.9353 45.4922C51.7295 45.6183 51.5636 45.8108 51.3944 45.99C51.2417 46.1526 51.1189 46.3484 50.9597 46.5077C50.5283 46.9457 49.765 46.8992 49.3469 46.4015C49.5493 46.282 49.6058 46.0929 49.6124 45.8705C49.6157 45.7677 49.6522 45.6615 49.692 45.5653C49.8746 45.1372 49.5792 44.6162 49.108 44.5863C48.879 44.5731 48.7098 44.5 48.5671 44.3209C48.3912 44.0985 48.1623 44.0587 47.8835 44.1218C47.7309 44.1583 47.5517 44.1284 47.3957 44.0852C47.2298 44.0388 47.2265 43.9094 47.3426 43.7932C47.4123 43.7235 47.4886 43.6572 47.5749 43.6107C48.2817 43.2158 48.9919 42.8276 49.702 42.436C49.7684 42.3995 49.8414 42.373 49.9044 42.3431C49.7816 42.1141 49.6622 41.8951 49.5361 41.6595C49.4896 41.6861 49.4266 41.7425 49.3602 41.7557C49.2573 41.7723 49.1113 41.8022 49.045 41.7491C48.7397 41.4936 48.4078 41.5434 48.0793 41.6396C47.6413 41.769 47.2066 41.8321 46.7719 41.6628C46.4533 41.5367 46.1513 41.3675 45.7896 41.1916C45.9323 41.1219 46.0285 41.0788 46.158 41.0157C46.0717 40.9527 45.9987 40.8996 45.8759 40.81H47.1369C46.898 40.4018 46.5528 40.1961 46.0916 40.1662C45.3317 40.1165 44.5817 40.1828 43.8484 40.3852C43.7156 40.4217 43.5464 40.5611 43.5099 40.6872C43.2544 41.5434 42.6969 42.1772 42.0498 42.7479C42.0066 42.7844 41.9668 42.8243 41.9237 42.8574C41.5023 43.1661 41.1671 43.5112 41.3164 44.1085C40.8917 43.6671 40.5731 43.6074 40.0355 43.8828C39.8364 43.9857 39.6473 44.1151 39.4448 44.2113C39.0732 44.3905 38.665 44.2943 38.4361 43.989C38.29 43.7932 38.3199 43.6505 38.5588 43.6008C38.7845 43.5543 38.884 43.4481 38.9438 43.2357C38.9803 43.1063 39.0666 42.9769 39.1595 42.8774C39.3254 42.6982 39.4681 42.519 39.5046 42.2635C39.5112 42.2037 39.5909 42.1307 39.6572 42.1108C39.8696 42.0345 39.9492 41.8818 39.9492 41.6695C39.9492 41.4073 39.9426 41.1485 39.9625 40.8863C39.9692 40.81 40.0388 40.6905 40.1019 40.6739C40.2247 40.6441 40.2778 40.737 40.2944 40.8664C40.3043 40.9328 40.3707 40.9958 40.447 41.1053C40.5134 41.0124 40.5499 40.9494 40.5997 40.9029C40.8021 40.7104 40.8353 40.7171 40.9979 40.9427C41.0974 41.0821 41.2268 41.102 41.3529 40.966C41.479 40.8332 41.5587 40.8664 41.6549 40.9892C41.7578 41.1153 42.1361 41.1617 42.2489 41.0489C42.2887 41.0091 42.2953 40.8996 42.2721 40.8399C42.2489 40.7835 42.1692 40.747 42.1095 40.7138C41.9469 40.6242 41.8805 40.5379 41.9867 40.3322C42.1626 39.9904 42 39.5922 41.6582 39.4196C41.26 39.2139 41.1771 39.0513 41.2501 38.6066C41.26 38.5435 41.2733 38.4805 41.2766 38.4174C41.2899 38.2217 41.2136 38.1022 41.0045 38.0591C40.5764 37.9728 40.4072 37.7007 40.4968 37.2693C40.5333 37.0967 40.5864 36.9275 40.5997 36.7516C40.6362 36.3401 40.4337 36.1145 40.0388 36.0713C39.9658 36.0647 39.8729 35.9784 39.8364 35.9021C39.6705 35.5603 39.5676 35.484 39.1927 35.547C38.8741 35.6034 38.6252 35.5006 38.4062 35.2849C38.2934 35.1754 38.1805 35.0692 38.071 34.963C37.6596 34.5681 37.1784 34.4287 36.6309 34.5847C36.0833 34.7407 35.5358 34.9099 34.9949 35.0891C34.892 35.1223 34.7759 35.2152 34.7327 35.3114C34.5469 35.7262 34.2018 35.849 33.7903 35.8722C33.6343 35.8822 33.4784 35.8822 33.3257 35.8689C32.9176 35.8324 32.5691 35.9486 32.2439 36.2041C31.9221 36.4596 31.8225 36.4364 31.63 36.0747C31.4608 35.7528 31.2186 35.6333 30.8569 35.6466C30.5715 35.6565 30.2861 35.5968 30.0007 35.5504C29.6954 35.5006 29.3934 35.4375 29.0915 35.3645C28.9886 35.338 28.8725 35.2882 28.8127 35.2086C28.5439 34.8435 28.4577 34.8269 28.1225 35.1256C28.096 35.1488 28.0661 35.1687 28.013 35.2086C27.9234 34.9497 27.7376 34.8236 27.4754 34.8137C27.4455 34.8137 27.409 34.7672 27.3858 34.7373C27.273 34.5714 27.1668 34.4022 27.0507 34.2363C26.9677 34.1168 26.8648 34.004 26.7819 33.8812C26.5994 33.6025 26.5927 33.5129 26.8151 33.2905H61.406C61.5752 33.4697 61.688 33.6821 61.6781 33.9542C61.6747 34.0206 61.7577 34.0903 61.8141 34.1765C61.615 34.4121 61.625 34.7174 61.6416 35.0194Z" fill="#FDCD61"/>
<path d="M61.6416 35.0194C61.6548 35.2218 61.6051 35.338 61.3794 35.3479C61.0443 35.3579 60.7058 35.4143 60.3739 35.3911C59.9359 35.3612 59.8231 35.4043 59.6738 35.8158C59.6472 35.8888 59.6207 35.9618 59.6107 36.0382C59.5875 36.1808 59.5112 36.2373 59.3651 36.2439C58.9736 36.2638 58.9371 36.3003 58.8242 36.6786C58.7877 36.8014 58.7512 36.9208 58.7214 37.0436C58.6782 37.2095 58.6782 37.3688 58.811 37.4717C58.7877 37.631 58.7712 37.777 58.7446 37.9164C58.7147 38.0591 58.6749 38.1885 58.4825 38.0723C58.4493 38.0524 58.3995 38.0425 58.3597 38.0491C58.061 38.0956 57.759 38.1221 57.4703 38.2051C57.3542 38.2382 57.2547 38.3876 57.1883 38.507C57.1086 38.653 57.0821 38.7758 56.8465 38.7393C56.5545 38.6929 56.3487 38.9086 56.1961 39.1375C56.0799 39.3134 56.0235 39.4329 55.7348 39.3499C55.5025 39.2835 55.184 39.4096 54.9849 39.6452C54.955 39.6817 54.9218 39.7182 54.882 39.7647C54.6796 39.6121 54.4838 39.7116 54.3046 39.7946C53.8102 40.0269 53.3655 40.3322 52.9972 40.7702C52.8445 40.6441 52.7317 40.737 52.6056 40.8498C52.4596 40.9792 52.297 41.0954 52.1311 41.1949C51.985 41.2812 51.9187 41.3874 51.932 41.5533C51.9585 41.8752 52.0116 42.1838 52.2007 42.4559C52.4629 42.8409 52.7284 43.2225 52.9938 43.6041C53.037 43.6671 53.0901 43.7269 53.1465 43.78C53.475 44.0886 53.9064 44.0521 54.1719 43.6904C54.2515 43.5842 54.3079 43.5344 54.4407 43.6174C54.7128 43.7899 54.7725 43.7766 55.0081 43.5576C55.2072 43.3718 55.4926 43.3917 55.8211 43.624C55.476 43.8131 55.466 44.1218 55.5125 44.4536C55.5324 44.583 55.4727 44.6295 55.3532 44.6461C55.1077 44.6792 54.8654 44.7357 54.6198 44.7556C54.517 44.7622 54.4008 44.7191 54.3046 44.6726C53.8234 44.427 53.7073 44.3972 53.2792 44.8883C53.2228 44.9513 53.173 45.021 53.1266 45.0907C52.9772 45.3064 52.8213 45.4358 52.5094 45.3562C52.3368 45.3131 52.0979 45.3927 51.9353 45.4922C51.7295 45.6183 51.5636 45.8108 51.3944 45.99C51.2417 46.1526 51.1189 46.3484 50.9597 46.5077C50.5283 46.9457 49.765 46.8992 49.3469 46.4015C49.5493 46.282 49.6058 46.0929 49.6124 45.8705C49.6157 45.7677 49.6522 45.6615 49.692 45.5653C49.8746 45.1372 49.5792 44.6162 49.108 44.5863C48.879 44.5731 48.7098 44.5 48.5671 44.3209C48.3912 44.0985 48.1623 44.0587 47.8835 44.1218C47.7309 44.1583 47.5517 44.1284 47.3957 44.0852C47.2298 44.0388 47.2265 43.9094 47.3426 43.7932C47.4123 43.7235 47.4886 43.6572 47.5749 43.6107C48.2817 43.2158 48.9919 42.8276 49.702 42.436C49.7684 42.3995 49.8414 42.373 49.9044 42.3431C49.7816 42.1141 49.6622 41.8951 49.5361 41.6595C49.4896 41.6861 49.4266 41.7425 49.3602 41.7557C49.2573 41.7723 49.1113 41.8022 49.045 41.7491C48.7397 41.4936 48.4078 41.5434 48.0793 41.6396C47.6413 41.769 47.2066 41.8321 46.7719 41.6628C46.4533 41.5367 46.1513 41.3675 45.7896 41.1916C45.9323 41.1219 46.0285 41.0788 46.158 41.0157C46.0717 40.9527 45.9987 40.8996 45.8759 40.81H47.1369C46.898 40.4018 46.5528 40.1961 46.0916 40.1662C45.3317 40.1165 44.5817 40.1828 43.8484 40.3852C43.7156 40.4217 43.5464 40.5611 43.5099 40.6872C43.2544 41.5434 42.6969 42.1772 42.0498 42.7479C42.0066 42.7844 41.9668 42.8243 41.9237 42.8574C41.5023 43.1661 41.1671 43.5112 41.3164 44.1085C40.8917 43.6671 40.5731 43.6074 40.0355 43.8828C39.8364 43.9857 39.6473 44.1151 39.4448 44.2113C39.0732 44.3905 38.665 44.2943 38.4361 43.989C38.29 43.7932 38.3199 43.6505 38.5588 43.6008C38.7845 43.5543 38.884 43.4481 38.9438 43.2357C38.9803 43.1063 39.0666 42.9769 39.1595 42.8774C39.3254 42.6982 39.4681 42.519 39.5046 42.2635C39.5112 42.2037 39.5909 42.1307 39.6572 42.1108C39.8696 42.0345 39.9492 41.8818 39.9492 41.6695C39.9492 41.4073 39.9426 41.1485 39.9625 40.8863C39.9692 40.81 40.0388 40.6905 40.1019 40.6739C40.2247 40.6441 40.2778 40.737 40.2944 40.8664C40.3043 40.9328 40.3707 40.9958 40.447 41.1053C40.5134 41.0124 40.5499 40.9494 40.5997 40.9029C40.8021 40.7104 40.8353 40.7171 40.9979 40.9427C41.0974 41.0821 41.2268 41.102 41.3529 40.966C41.479 40.8332 41.5587 40.8664 41.6549 40.9892C41.7578 41.1153 42.1361 41.1617 42.2489 41.0489C42.2887 41.0091 42.2953 40.8996 42.2721 40.8399C42.2489 40.7835 42.1692 40.747 42.1095 40.7138C41.9469 40.6242 41.8805 40.5379 41.9867 40.3322C42.1626 39.9904 42 39.5922 41.6582 39.4196C41.26 39.2139 41.1771 39.0513 41.2501 38.6066C41.26 38.5435 41.2733 38.4805 41.2766 38.4174C41.2899 38.2217 41.2136 38.1022 41.0045 38.0591C40.5764 37.9728 40.4072 37.7007 40.4968 37.2693C40.5333 37.0967 40.5864 36.9275 40.5997 36.7516C40.6362 36.3401 40.4337 36.1145 40.0388 36.0713C39.9658 36.0647 39.8729 35.9784 39.8364 35.9021C39.6705 35.5603 39.5676 35.484 39.1927 35.547C38.8741 35.6034 38.6252 35.5006 38.4062 35.2849C38.2934 35.1754 38.1805 35.0692 38.071 34.963C37.6596 34.5681 37.1784 34.4287 36.6309 34.5847C36.0833 34.7407 35.5358 34.9099 34.9949 35.0891C34.892 35.1223 34.7759 35.2152 34.7327 35.3114C34.5469 35.7262 34.2018 35.849 33.7903 35.8722C33.6343 35.8822 33.4784 35.8822 33.3257 35.8689C32.9176 35.8324 32.5691 35.9486 32.2439 36.2041C31.9221 36.4596 31.8225 36.4364 31.63 36.0747C31.4608 35.7528 31.2186 35.6333 30.8569 35.6466C30.5715 35.6565 30.2861 35.5968 30.0007 35.5504C29.6954 35.5006 29.3934 35.4375 29.0915 35.3645C28.9886 35.338 28.8725 35.2882 28.8127 35.2086C28.5439 34.8435 28.4577 34.8269 28.1225 35.1256C28.096 35.1488 28.0661 35.1687 28.013 35.2086C27.9234 34.9497 27.7376 34.8236 27.4754 34.8137C27.4455 34.8137 27.409 34.7672 27.3858 34.7373C27.273 34.5714 27.1668 34.4022 27.0507 34.2363C26.9677 34.1168 26.8648 34.004 26.7819 33.8812C26.5994 33.6025 26.5927 33.5129 26.8151 33.2905H61.406C61.5752 33.4697 61.688 33.6821 61.6781 33.9542C61.6747 34.0206 61.7577 34.0903 61.8141 34.1765C61.615 34.4121 61.625 34.7174 61.6416 35.0194Z" stroke="#FDCD61" stroke-width="0.485639" stroke-miterlimit="10"/>
<path d="M27.187 33.1347C27.3032 32.9853 27.3994 32.8028 27.4293 32.5672C27.4458 32.4478 27.5421 32.3548 27.6848 32.3217C27.7014 32.3183 27.7146 32.315 27.7279 32.315C27.7943 32.315 27.8606 32.3615 27.9502 32.471C27.9702 32.4942 27.9901 32.5174 28.0133 32.5407L28.2091 32.7497L28.3186 32.5473C28.4812 32.242 28.3816 31.9998 28.2887 31.8438C28.229 31.7443 28.1858 31.6082 28.1626 31.4556C28.1427 31.3261 28.1394 31.1934 28.1361 31.0507C28.1361 30.9877 28.1328 30.9213 28.1294 30.8582C28.1195 30.6226 28.1925 30.4434 28.3617 30.2941L29.2046 29.5541C29.5862 29.219 29.9678 28.8838 30.3494 28.5486C30.3693 28.5321 30.4125 28.5155 30.4822 28.4989C30.7676 28.4358 30.9998 28.2732 31.1392 28.0476C31.2786 27.8186 31.3151 27.5399 31.2421 27.2578C31.2454 27.2578 31.2487 27.2346 31.2554 27.218C31.2653 27.1815 31.2786 27.135 31.2786 27.0819L31.2819 27.0222C31.2852 26.9127 31.2885 26.7866 31.252 26.6671C31.2056 26.5112 31.0861 26.3917 31.0198 26.3353C30.7344 26.0864 30.5884 25.7678 30.5585 25.3298C30.5552 25.2535 30.5452 25.1772 30.5386 25.1008C30.5286 24.998 30.5154 24.8918 30.5154 24.7889C30.5154 24.779 30.5154 24.769 30.5154 24.7624C30.5253 24.7657 30.5319 24.769 30.5452 24.7723C30.5751 24.7823 30.605 24.7955 30.6315 24.8088L30.6713 24.8254C30.824 24.8918 30.9501 24.9216 31.0629 24.9216C31.3317 24.9216 31.5076 24.7491 31.6403 24.5832C31.6668 24.55 31.6901 24.5168 31.7133 24.4836C31.7531 24.4272 31.7863 24.3774 31.8261 24.3442C31.8792 24.3011 31.992 24.2082 32.0451 24.2049C32.3073 24.1982 32.5694 24.1916 32.8316 24.1916C33.482 24.1916 34.2519 24.2281 34.9952 24.5068L35.1511 24.5666C35.5427 24.7159 35.9476 24.8685 36.3955 24.8685C36.4553 24.8685 36.515 24.8652 36.5781 24.8586C36.6046 24.8619 36.6809 24.9183 36.6975 24.9482C36.8303 25.2535 37.0559 25.4061 37.3745 25.4061C37.3977 25.4061 37.4939 25.4028 37.5172 25.4028C37.6632 25.4028 37.7295 25.4294 37.766 25.5953L37.8291 25.884L38.0415 25.6816C38.151 25.5787 38.2638 25.5355 38.4297 25.5355C38.4629 25.5355 38.4928 25.5355 38.526 25.5389H38.5293C38.652 25.5389 38.7416 25.4924 38.8246 25.4426C38.8412 25.4625 38.8578 25.4825 38.881 25.5024C39.0005 25.6019 39.1 25.6683 39.2029 25.6683H39.2361L39.2859 25.6517C39.3224 25.6384 39.339 25.6351 39.3456 25.6351C39.3655 25.6451 39.3987 25.7114 39.4186 25.7512C39.4485 25.8143 39.4651 25.8541 39.4883 25.9072L39.6077 26.1893L39.8799 25.947C39.9529 25.884 40.0225 25.8209 40.0889 25.7579C40.1287 25.7181 40.1652 25.6749 40.2017 25.6318C40.2382 25.5853 40.2781 25.5422 40.3212 25.5024C40.3809 25.4526 40.4208 25.4393 40.4307 25.4393C40.4307 25.4426 40.4539 25.4692 40.4705 25.5621C40.4738 25.5853 40.4772 25.6052 40.4805 25.6285C40.4871 25.6849 40.4938 25.7413 40.5103 25.7911C40.59 26.0433 40.7559 26.1893 40.9683 26.1893C41.0977 26.1893 41.2304 26.1329 41.3565 26.0267C41.3897 25.9968 41.4594 25.9736 41.5059 25.9736C41.6651 26.0001 41.7879 26.0167 41.914 26.0167C42.0766 26.0167 42.2226 25.9868 42.362 25.9271C42.3653 25.9271 42.3686 25.9271 42.372 25.9271C42.3952 25.9271 42.4184 25.947 42.445 25.9935C42.4682 26.0333 42.4881 26.0731 42.508 26.1163C42.5445 26.1926 42.5843 26.2689 42.6275 26.3386C42.7436 26.5211 42.9129 26.6207 43.102 26.6207C43.1452 26.6207 43.1916 26.614 43.2381 26.6041C43.3708 26.5742 43.4637 26.5112 43.5168 26.4216C43.5666 26.332 43.5765 26.2291 43.54 26.1063C43.3675 25.5057 43.5069 24.9449 44.0046 24.2281C44.0212 24.2049 44.0511 24.1783 44.071 24.1651C44.1141 24.1717 44.1573 24.175 44.2004 24.175C44.3895 24.175 44.5621 24.1285 44.7313 24.0821C44.884 24.039 45.0267 24.0024 45.1694 24.0024C45.2125 24.0024 45.2556 24.0058 45.2988 24.0157C45.3652 24.029 45.4216 24.0522 45.4481 24.0755C45.5742 24.185 45.7667 24.2513 45.9691 24.2513C46.0886 24.2513 46.2047 24.2281 46.3043 24.1816C46.5598 24.0688 46.6726 23.8432 46.6228 23.5511C46.6195 23.5379 46.6261 23.5047 46.6295 23.4781C46.6427 23.3852 46.6527 23.3388 46.6593 23.3122C46.6826 23.3189 46.7191 23.3321 46.7854 23.362C47.021 23.4748 47.2035 23.5445 47.3761 23.5445C47.6183 23.5445 47.8008 23.4184 48.073 23.1729C48.0696 23.1762 48.073 23.1762 48.0763 23.1762C48.0796 23.1762 48.0862 23.1762 48.0929 23.1762C48.1261 23.1762 48.1559 23.1894 48.1791 23.2027C48.3451 23.3056 48.5077 23.3587 48.6669 23.3587C48.7897 23.3587 48.9059 23.3255 49.0021 23.2624L49.0253 23.279C49.1382 23.362 49.2477 23.4416 49.3539 23.5213C49.2676 23.9228 49.5131 24.1883 49.6957 24.3874C49.7786 24.477 49.8682 24.5566 49.9545 24.6363L49.4103 24.9051L49.5928 25.0677C49.762 25.217 49.7985 25.3464 49.7355 25.5455C49.6957 25.6683 49.762 25.7778 49.8317 25.8873C49.845 25.9072 49.8583 25.9304 49.8715 25.9503C49.8483 26.0466 49.8417 26.1494 49.9047 26.2424C49.9943 26.3685 50.1635 26.3884 50.3162 26.395C50.3958 26.3983 50.4821 26.4216 50.575 26.4448C50.6513 26.4647 50.7277 26.4846 50.8073 26.4979C50.96 26.5211 51.1159 26.5377 51.2785 26.551L51.4013 26.5642C51.4776 26.7434 51.6502 26.8198 51.8128 26.8529C51.7066 27.2246 51.992 27.4801 52.1114 27.5863C52.2375 27.6991 52.2309 27.7356 52.1844 27.8186C52.065 28.031 52.0982 28.2832 52.2707 28.4989C52.3769 28.6283 52.5063 28.7345 52.6192 28.8241C52.7154 28.9037 52.8183 28.9435 52.9178 28.9435C53.0472 28.9435 53.1667 28.8805 53.2729 28.7511C53.3525 28.6548 53.4255 28.6084 53.4985 28.6084C53.5616 28.6084 53.6346 28.6449 53.7142 28.7112C53.8702 28.844 54.0892 28.9999 54.3978 29.0165H54.4177C54.5206 29.1061 54.6301 29.1526 54.7396 29.1526C54.9221 29.1526 55.0648 29.0364 55.1909 28.9303C55.327 28.8174 55.4066 28.7942 55.4464 28.7909C55.7086 28.7577 55.9309 28.6714 56.1267 28.5254C56.1798 28.6283 56.2727 28.698 56.3988 28.7411C56.3988 29.0265 56.5282 29.2488 56.7937 29.4048L56.8335 29.428C57.0094 29.5309 57.1853 29.6338 57.3645 29.7333C57.4308 29.7698 57.5071 29.7897 57.5835 29.7897C57.8157 29.7897 58.0082 29.6238 58.048 29.4015C58.2173 29.5276 58.4263 29.6437 58.7117 29.6437H58.7449C58.7847 29.6437 58.8677 29.7001 58.9274 29.7433C58.9739 29.7764 59.0203 29.8063 59.0668 29.8329C59.2028 29.9092 59.3389 29.9457 59.4584 29.9457C59.5413 29.9457 59.6143 29.9291 59.6807 29.8959L59.8466 29.9457C59.9993 29.9921 60.1386 30.032 60.278 30.0784L60.3245 30.0917C60.3543 30.0983 60.4008 30.1149 60.414 30.1249C60.6098 30.3804 60.8255 30.5098 61.0678 30.5098C61.1607 30.5098 61.2536 30.4899 61.3532 30.4534C61.3432 30.6857 61.4793 30.8582 61.6319 30.9744C61.6319 30.9877 61.6319 31.0076 61.6286 31.0142C61.602 31.0773 61.5689 31.1403 61.5323 31.2034C61.4826 31.293 61.4295 31.3892 61.3963 31.4954C61.3697 31.5817 61.3465 31.6049 61.2204 31.6115C61.1175 31.6148 61.0313 31.6613 60.9549 31.6978C60.9284 31.7111 60.9019 31.7243 60.8786 31.7343L60.7094 31.804L60.7923 31.9666C60.8056 31.9931 60.8189 32.0263 60.8322 32.0595C60.872 32.1591 60.9184 32.2851 61.0346 32.3449C61.0711 32.3648 61.1076 32.3814 61.1474 32.398C61.0545 32.471 61.0114 32.5705 60.9948 32.6535C60.9682 32.7895 60.9483 32.9721 61.028 33.1446H27.187V33.1347Z" fill="#398BD5"/>
<path d="M48.1324 23.3484C48.3182 23.4579 48.5007 23.5144 48.6832 23.5144C48.7961 23.5144 48.9056 23.4911 49.0051 23.448C49.0682 23.4944 49.1312 23.5376 49.191 23.584C49.1478 24.0088 49.4199 24.3041 49.5925 24.49C49.6223 24.5231 49.6522 24.553 49.6821 24.5829L49.5726 24.636L49.1345 24.8517L49.4996 25.1802C49.6356 25.303 49.6323 25.3693 49.5958 25.4822C49.5294 25.6813 49.6323 25.8439 49.7053 25.9633C49.7053 25.9666 49.7086 25.97 49.7086 25.97C49.692 26.0728 49.6987 26.2056 49.7816 26.325C49.9243 26.5308 50.1832 26.544 50.3225 26.5507C50.3856 26.554 50.4619 26.5739 50.5449 26.5971C50.6179 26.617 50.7041 26.6403 50.7937 26.6535C50.953 26.6768 51.109 26.6934 51.2749 26.71C51.2849 26.71 51.2981 26.7133 51.3081 26.7133C51.391 26.8394 51.5105 26.9157 51.6366 26.9622C51.6233 27.2177 51.7461 27.4632 52.0149 27.7022C52.0315 27.7154 52.0414 27.7254 52.0514 27.7353C51.9054 28.0041 51.9452 28.3327 52.1576 28.5981C52.2737 28.7408 52.4098 28.8503 52.5293 28.9466C52.6587 29.0494 52.7914 29.1025 52.9308 29.1025C53.0569 29.1025 53.2394 29.0594 53.4119 28.8503C53.475 28.774 53.5082 28.7674 53.5082 28.7674C53.5082 28.7674 53.5447 28.7707 53.6177 28.8337C53.7736 28.9665 54.0192 29.1457 54.3676 29.1755C54.4871 29.2684 54.6165 29.3149 54.7526 29.3149C54.9948 29.3149 55.1674 29.1722 55.3167 29.0494C55.4262 28.9598 55.4793 28.9499 55.4826 28.9499C55.7149 28.92 55.9206 28.8536 56.1065 28.7441C56.1563 28.7906 56.2093 28.8271 56.2624 28.8536C56.2824 29.076 56.3885 29.3448 56.727 29.5439L56.7635 29.5671C56.9394 29.67 57.1186 29.7762 57.3044 29.8757C57.3973 29.9255 57.5002 29.952 57.6031 29.952C57.832 29.952 58.0311 29.8326 58.144 29.6501C58.3033 29.7397 58.4924 29.806 58.728 29.806H58.7413C58.7678 29.8193 58.8143 29.8525 58.8475 29.8757C58.9006 29.9122 58.9503 29.9454 59.0034 29.9753C59.166 30.0649 59.3253 30.1113 59.4746 30.1113C59.5576 30.1113 59.6372 30.098 59.7069 30.0715L59.8231 30.1047C59.9724 30.1478 60.1085 30.1876 60.2412 30.2308L60.291 30.2474C60.3009 30.2507 60.3142 30.254 60.3242 30.2573C60.5531 30.5361 60.802 30.6721 61.0841 30.6721C61.1305 30.6721 61.1803 30.6688 61.2268 30.6588C61.2633 30.7916 61.3396 30.9144 61.4557 31.0239C61.4391 31.0537 61.4225 31.0869 61.4026 31.1201C61.3529 31.213 61.2931 31.3192 61.2533 31.4387C61.2467 31.4387 61.24 31.4387 61.2301 31.442C61.0907 31.4486 60.9779 31.505 60.8949 31.5482C60.8717 31.5581 60.8518 31.5714 60.8285 31.578L60.4934 31.7174L60.6593 32.0393C60.6726 32.0625 60.6792 32.0891 60.6925 32.1156C60.729 32.2119 60.7854 32.3545 60.9082 32.4475C60.875 32.5138 60.8551 32.5736 60.8485 32.6167C60.8352 32.6831 60.8086 32.8158 60.8252 32.9718H28.2818L28.4676 32.6266C28.6202 32.3413 28.6103 32.0592 28.4344 31.7606C28.3846 31.6776 28.3515 31.5648 28.3315 31.432C28.315 31.3126 28.3116 31.1831 28.3083 31.0471C28.305 30.9807 28.305 30.9177 28.3017 30.8513C28.295 30.6655 28.3481 30.5327 28.4776 30.4199C28.7563 30.1744 29.0317 29.9321 29.3105 29.6866C29.6921 29.3514 30.0704 29.0162 30.4553 28.6811C30.462 28.6778 30.4819 28.6711 30.5283 28.6612C30.8568 28.5882 31.1289 28.399 31.2916 28.1335C31.4475 27.8814 31.494 27.5727 31.4243 27.2608V27.2575C31.4342 27.2144 31.4508 27.1546 31.4508 27.0849V27.0252C31.4542 26.9091 31.4575 26.7631 31.4143 26.617C31.3546 26.4213 31.2119 26.2753 31.1356 26.2056C30.8867 25.9866 30.7573 25.7045 30.7307 25.3129C30.7274 25.2333 30.7175 25.157 30.7108 25.0773C30.7075 25.0541 30.7075 25.0275 30.7042 25.0043C30.8402 25.0541 30.9597 25.0773 31.0725 25.0773C31.4143 25.0773 31.63 24.8649 31.7794 24.6758C31.8059 24.6393 31.8324 24.6028 31.859 24.5663C31.8889 24.5231 31.922 24.48 31.942 24.4601C31.9718 24.4335 32.0415 24.3771 32.078 24.3605C32.3335 24.3539 32.5857 24.3473 32.8412 24.3473C33.4784 24.3473 34.225 24.3838 34.9451 24.6492L35.0977 24.7057C35.5026 24.8583 35.9207 25.0176 36.4019 25.0176C36.4516 25.0176 36.5014 25.0143 36.5512 25.0143C36.5545 25.0176 36.5578 25.0209 36.5612 25.0209C36.7204 25.3726 37.0058 25.5585 37.3808 25.5585C37.4073 25.5585 37.4339 25.5585 37.4604 25.5552C37.4837 25.5552 37.5036 25.5518 37.5235 25.5518C37.56 25.5518 37.5799 25.5552 37.5865 25.5552H37.5899C37.5932 25.5618 37.6031 25.5784 37.6098 25.6149L37.7359 26.189L38.1639 25.7841C38.2436 25.7111 38.3133 25.6846 38.4394 25.6846C38.4659 25.6846 38.4958 25.6846 38.5256 25.6879H38.5489H38.5621C38.6551 25.6879 38.738 25.6613 38.8077 25.6282C38.9205 25.7211 39.0566 25.8173 39.2159 25.8173C39.2391 25.8173 39.2623 25.814 39.2856 25.8107L39.2955 25.8339C39.3121 25.8704 39.3287 25.9069 39.3486 25.9534L39.3785 26.0231L39.5577 26.4478L39.9028 26.1425C39.936 26.1126 39.9691 26.0828 40.0023 26.0562C40.0787 25.9899 40.1517 25.9268 40.2213 25.8605C40.2645 25.8173 40.3043 25.7709 40.3474 25.7211C40.3541 25.7543 40.3607 25.7874 40.3707 25.824C40.4702 26.1458 40.6992 26.3383 40.9846 26.3383C41.1538 26.3383 41.323 26.2686 41.479 26.1359C41.489 26.1292 41.5122 26.1226 41.5089 26.1193C41.6615 26.1458 41.7943 26.1624 41.9303 26.1624C42.0763 26.1624 42.2124 26.1425 42.3385 26.0994C42.3484 26.1226 42.3617 26.1458 42.3717 26.1691C42.4082 26.2454 42.448 26.325 42.5011 26.408C42.6471 26.6403 42.8661 26.7664 43.1183 26.7664C43.1747 26.7664 43.2344 26.7597 43.2909 26.7465C43.47 26.7033 43.5995 26.617 43.6758 26.4843C43.7289 26.3947 43.7753 26.2454 43.7156 26.0396C43.5596 25.4954 43.6857 24.9811 44.147 24.3174C44.1702 24.3174 44.1935 24.3207 44.2167 24.3207C44.4257 24.3207 44.6215 24.2676 44.7908 24.2212C44.9335 24.1813 45.0662 24.1448 45.1823 24.1448C45.2188 24.1448 45.2487 24.1482 45.2819 24.1548C45.325 24.1648 45.3516 24.1747 45.3549 24.178C45.5109 24.3174 45.7398 24.397 45.9854 24.397C46.1281 24.397 46.2708 24.3672 46.3902 24.3141C46.7121 24.1714 46.8614 23.886 46.8083 23.5309C47.0274 23.6305 47.2099 23.6935 47.3924 23.6935C47.6844 23.7002 47.9067 23.5475 48.1324 23.3484ZM27.7243 32.484C27.7276 32.484 27.7575 32.4972 27.8272 32.5835C27.8471 32.6067 27.8703 32.63 27.8968 32.6565L27.9333 32.693L28.1889 32.9684H27.4854C27.5385 32.8556 27.5783 32.7295 27.5982 32.5868C27.6015 32.5304 27.6679 32.4972 27.7243 32.484ZM48.1092 23C48.0627 23 48.0096 23.01 47.9797 23.0365C47.7309 23.2622 47.5749 23.3683 47.3924 23.3683C47.253 23.3683 47.097 23.3119 46.8714 23.2024C46.7752 23.156 46.7055 23.1327 46.6524 23.1327C46.5495 23.1327 46.5097 23.219 46.4831 23.4214C46.4765 23.4712 46.4666 23.521 46.4765 23.5708C46.513 23.7765 46.4533 23.9325 46.2542 24.0221C46.1712 24.0586 46.0783 24.0752 45.9854 24.0752C45.8261 24.0752 45.6701 24.0254 45.5739 23.9424C45.5142 23.8893 45.4279 23.8561 45.3449 23.8429C45.2885 23.8329 45.2354 23.8263 45.1823 23.8263C44.8538 23.8263 44.5452 24.0022 44.2167 24.0022C44.1735 24.0022 44.1304 23.9988 44.084 23.9922C44.0806 23.9922 44.0773 23.9922 44.074 23.9922C44.0143 23.9922 43.9247 24.0685 43.8848 24.1283C43.4601 24.7355 43.1747 25.3859 43.397 26.1492C43.4501 26.3283 43.3572 26.4047 43.2145 26.4412C43.1813 26.4478 43.1482 26.4544 43.1183 26.4544C42.9789 26.4544 42.8628 26.3781 42.7831 26.2487C42.7168 26.1425 42.667 26.0231 42.6073 25.9135C42.5575 25.824 42.4878 25.7576 42.3982 25.7576C42.3717 25.7576 42.3418 25.7642 42.3119 25.7775C42.1858 25.8339 42.0597 25.8538 41.9303 25.8538C41.8108 25.8538 41.6881 25.8372 41.5653 25.814C41.552 25.8107 41.5387 25.8107 41.5222 25.8107C41.4359 25.8107 41.3297 25.8505 41.2666 25.9036C41.1704 25.9866 41.0708 26.0297 40.9846 26.0297C40.8518 26.0297 40.7456 25.9368 40.6859 25.7476C40.666 25.6813 40.6627 25.6083 40.6527 25.5386C40.6229 25.366 40.5532 25.2764 40.4503 25.2764C40.3873 25.2764 40.3143 25.3096 40.2313 25.3793C40.1417 25.4556 40.0753 25.5585 39.9891 25.6414C39.8961 25.7344 39.7933 25.8173 39.6838 25.9135C39.6439 25.824 39.6207 25.7642 39.5942 25.7078C39.5378 25.5917 39.4913 25.4722 39.3619 25.4722C39.3254 25.4722 39.2856 25.4822 39.2358 25.5021C39.2291 25.5054 39.2225 25.5054 39.2159 25.5054C39.1595 25.5054 39.0599 25.4291 39.0002 25.376C38.9537 25.3361 38.9338 25.2631 38.9073 25.2134C38.7778 25.2731 38.6683 25.376 38.5621 25.376C38.5588 25.376 38.5555 25.376 38.5522 25.376C38.5157 25.3726 38.4792 25.3726 38.446 25.3726C38.2668 25.3726 38.1009 25.4125 37.9416 25.5618C37.8819 25.293 37.7226 25.2366 37.5301 25.2366C37.5036 25.2366 37.4737 25.2366 37.4438 25.2399C37.4239 25.2399 37.404 25.2432 37.3841 25.2432C37.1419 25.2432 36.966 25.1337 36.8598 24.8848C36.8233 24.7986 36.6773 24.6957 36.5844 24.6957C36.5811 24.6957 36.5777 24.6957 36.5744 24.6957C36.518 24.7023 36.4616 24.7023 36.4085 24.7023C35.934 24.7023 35.5059 24.5165 35.0679 24.3539C34.3478 24.0851 33.6012 24.0287 32.8479 24.0287C32.5857 24.0287 32.3203 24.0353 32.0581 24.042C31.9486 24.0453 31.8324 24.1415 31.7362 24.2178C31.6499 24.2875 31.5968 24.3937 31.5238 24.48C31.3712 24.6691 31.2418 24.7554 31.0759 24.7554C30.9829 24.7554 30.8768 24.7256 30.7473 24.6725C30.7009 24.6526 30.6577 24.6326 30.6113 24.6161C30.5648 24.5995 30.525 24.5895 30.4885 24.5895C30.3989 24.5895 30.3558 24.6526 30.3591 24.7919C30.3624 24.9744 30.3923 25.157 30.4055 25.3395C30.4354 25.7808 30.5814 26.1624 30.9232 26.4611C30.9995 26.5274 31.0759 26.6204 31.1057 26.7166C31.1389 26.8327 31.1289 26.9622 31.1256 27.0816C31.1256 27.1546 31.0792 27.2343 31.0958 27.2973C31.2219 27.7918 30.9597 28.2231 30.462 28.336C30.3889 28.3526 30.306 28.3758 30.2562 28.4222C29.5925 29.003 28.9322 29.587 28.2685 30.171C28.0561 30.3569 27.9698 30.5892 27.9798 30.8679C27.9898 31.0736 27.9831 31.2794 28.013 31.4818C28.0362 31.6345 28.0827 31.7971 28.159 31.9298C28.2652 32.109 28.2917 32.2716 28.1855 32.4707C28.1457 32.4309 28.1192 32.401 28.0926 32.3711C27.9964 32.255 27.8902 32.1554 27.7409 32.1554C27.7143 32.1554 27.6878 32.1588 27.6612 32.1654C27.4588 32.2119 27.3028 32.3579 27.2796 32.5503C27.2398 32.8656 27.0639 33.068 26.8515 33.2737C26.8416 33.2837 26.8283 33.297 26.8184 33.3069H61.4093C61.3794 33.2737 61.3462 33.2439 61.313 33.214C61.1471 33.068 61.1471 32.8755 61.1869 32.6864C61.2201 32.5271 61.3462 32.4674 61.4989 32.4508C61.5686 32.4441 61.6382 32.411 61.7378 32.3811C61.5088 32.3147 61.3097 32.2882 61.1405 32.1986C61.0542 32.1521 61.0243 31.9962 60.9679 31.89C61.0642 31.8501 61.1604 31.7838 61.2566 31.7771C61.4259 31.7705 61.5254 31.7207 61.5818 31.5449C61.6349 31.3789 61.7444 31.2329 61.8108 31.0703C61.834 31.0106 61.8274 30.8878 61.7876 30.8613C61.5155 30.6688 61.4657 30.4365 61.6747 30.1213C61.5851 30.1677 61.5387 30.1876 61.4989 30.2109C61.3529 30.2971 61.2201 30.3403 61.0973 30.3403C60.9049 30.3403 60.7356 30.2341 60.5664 30.0151C60.5233 29.9587 60.4303 29.9421 60.354 29.9188C60.1483 29.8525 59.9392 29.7927 59.6837 29.7164C59.6306 29.7629 59.5609 29.7828 59.4879 29.7828C59.3917 29.7828 59.2855 29.7496 59.176 29.6899C59.0433 29.6169 58.9072 29.4808 58.7745 29.4808H58.7678C58.7579 29.4808 58.7479 29.4808 58.7413 29.4808C58.4891 29.4808 58.3066 29.3779 58.1207 29.2286C58.0743 29.1921 58.0345 29.1722 58.0046 29.1722C57.9548 29.1722 57.925 29.2253 57.9183 29.3381C57.9117 29.5107 57.7657 29.6301 57.613 29.6301C57.5666 29.6301 57.5168 29.6202 57.4737 29.5936C57.2812 29.4908 57.0954 29.3779 56.9062 29.2684C56.7104 29.1523 56.591 28.9963 56.6009 28.7508C56.6042 28.701 56.5511 28.6114 56.508 28.5981C56.3255 28.5483 56.2459 28.4388 56.2624 28.2132C56.0169 28.4753 55.758 28.5915 55.4528 28.6313C55.3366 28.6446 55.2138 28.7242 55.1209 28.8005C55.0048 28.8968 54.8919 28.9897 54.7692 28.9897C54.6962 28.9897 54.6198 28.9565 54.5369 28.8769C54.5137 28.857 54.4705 28.8536 54.434 28.8536C54.205 28.8404 54.0225 28.7342 53.85 28.5882C53.7372 28.4919 53.6276 28.4422 53.5248 28.4422C53.402 28.4422 53.2825 28.5118 53.1697 28.6479C53.0967 28.7375 53.0237 28.7806 52.9441 28.7806C52.881 28.7806 52.818 28.7541 52.7516 28.6977C52.6354 28.6048 52.5193 28.5085 52.4297 28.3957C52.3136 28.2497 52.2638 28.0639 52.36 27.8979C52.4695 27.7022 52.3899 27.5827 52.2538 27.4599C52.0282 27.2575 51.8755 27.0352 52.0912 26.7133C51.8224 26.6934 51.5935 26.6502 51.5636 26.4047C51.3114 26.3781 51.0858 26.3615 50.8634 26.3283C50.6942 26.3018 50.5283 26.2321 50.359 26.2222C50.067 26.2089 50.0106 26.1492 50.0836 25.9235C50.0172 25.7841 49.9044 25.6647 49.931 25.5883C50.0106 25.3361 49.9608 25.137 49.7385 24.9379C49.9475 24.8351 50.1168 24.7521 50.2827 24.6691C50.1367 24.5364 49.984 24.4136 49.8513 24.2709C49.6588 24.0619 49.4697 23.8462 49.556 23.521C49.5659 23.4878 49.5427 23.4314 49.5162 23.4082C49.3635 23.2887 49.2009 23.1726 49.0317 23.0498C48.9454 23.1394 48.8292 23.1891 48.6998 23.1891C48.5771 23.1891 48.441 23.146 48.3016 23.0597C48.2552 23.0299 48.1954 23.01 48.1423 23.0066C48.1224 23 48.1158 23 48.1092 23Z" fill="#398BD5"/>
<path d="M61.2666 67.9043C60.8949 65.9564 60.6527 63.0495 61.8241 60.0563C63.8217 54.946 67.8337 54.9692 70.9098 49.6266C73.0137 45.9764 73.173 42.4323 73.4086 37.312C73.6375 32.3378 72.9772 28.213 72.3268 25.3858C71.5536 25.1966 70.5017 25.0838 69.682 25.6313C68.2385 26.6003 68.4409 29.0128 68.4277 31.5546C68.4144 33.8775 68.2153 37.1262 67.3857 41.1216" stroke="#0A0909" stroke-width="2.0235" stroke-miterlimit="10" stroke-linecap="round" stroke-linejoin="round"/>
<path d="M49.6855 68.6248C49.7453 66.9623 49.8216 64.3341 49.8382 61.0821C49.8614 55.8357 49.6955 55.6333 50.0804 54.6577C51.212 51.7939 53.2429 52.0925 58.4726 46.896C59.4582 45.917 60.5234 45.0177 61.4559 43.989C62.823 42.4825 63.3241 41.6463 64.6183 41.1352C65.0198 40.9759 66.4169 40.4251 67.3858 41.122C67.9931 41.5567 68.1524 42.2801 68.1856 42.4559C68.3349 43.2391 68.1225 44.3541 65.2521 47.3638C63.2743 49.4412 62.5343 49.7896 60.9482 51.5417C59.7602 52.8491 58.9173 54.0404 58.3864 54.8501" stroke="#0A0909" stroke-width="2.0235" stroke-miterlimit="10" stroke-linecap="round" stroke-linejoin="round"/>
<path d="M30.014 68.2363C30.3857 66.2884 30.6279 63.3815 29.4565 60.3883C27.4589 55.278 23.4469 55.3012 20.3708 49.9586C18.2669 46.3084 18.1076 42.7644 17.872 37.6441C17.6431 32.6698 18.3034 28.5451 18.9538 25.7178C19.727 25.5286 20.7789 25.4158 21.5986 25.9633C23.0421 26.9323 22.8397 29.3448 22.8529 31.8867C22.8662 34.2095 23.0653 37.4583 23.8949 41.4536" stroke="#0A0909" stroke-width="2.0235" stroke-miterlimit="10" stroke-linecap="round" stroke-linejoin="round"/>
<path d="M41.5952 68.9563C41.5355 67.2938 41.4592 64.6656 41.4426 61.4136C41.4194 56.1672 41.5853 55.9648 41.2004 54.9892C40.0688 52.1254 38.0379 52.4241 32.8081 47.2275C31.8226 46.2486 30.7541 45.3493 29.8249 44.3206C28.4577 42.814 27.9567 41.9778 26.6625 41.4668C26.2576 41.3075 24.8639 40.7566 23.8949 41.4535C23.2877 41.8882 23.1284 42.6116 23.0952 42.7875C22.9459 43.5706 23.1583 44.6856 26.0287 47.6954C28.0064 49.7727 28.7464 50.1211 30.3326 51.8732C31.5206 53.1807 32.3635 54.372 32.8944 55.1817" stroke="#0A0909" stroke-width="2.0235" stroke-miterlimit="10" stroke-linecap="round" stroke-linejoin="round"/>
</svg>
